<?xml version="1.0" encoding="iso-8859-1"?>
<!-- Uploaded to: SVG Repo, www.svgrepo.com, Generator: SVG Repo Mixer Tools -->
<svg height="800px" width="800px" version="1.1" id="Capa_1" xmlns="http://www.w3.org/2000/svg" xmlns:xlink="http://www.w3.org/1999/xlink" 
	 viewBox="0 0 246 246" xml:space="preserve">
<g>
	<g>
		<polygon style="fill:#030104;" points="126.305,218.842 89.655,209.74 59.068,202.141 57.524,204.342 89.061,212.178 
			126.71,221.523 128.914,220.196 128.511,217.514 		"/>
		<polygon style="fill:#030104;" points="53.011,200.636 33.545,168.291 14.398,136.524 11.712,136.929 31.384,169.602 51.4,202.82 
			55.112,203.742 56.656,201.541 		"/>
		<polygon style="fill:#030104;" points="23.153,99.292 32.272,62.661 36.16,60.318 34.024,58.659 30.073,61.037 20.729,98.698 
			11.811,134.576 14.492,134.173 		"/>
		<polygon style="fill:#030104;" points="64.593,43.182 64.593,43.182 96.95,23.702 99.445,24.322 99.04,21.629 96.539,21.007 
			96.085,21.274 63.306,41.036 36.143,57.384 38.278,59.042 		"/>
		<polygon style="fill:#030104;" points="189.7,74.24 208.245,105.016 210.931,104.611 191.857,72.956 172.368,40.578 
			170.784,42.835 		"/>
		<polygon style="fill:#030104;" points="133.594,32.805 168.859,41.56 170.405,39.356 134.188,30.366 101.465,22.232 
			101.871,24.925 		"/>
		<polygon style="fill:#030104;" points="200.088,143.23 191.464,178 193.62,179.675 202.516,143.849 211.708,106.841 
			209.028,107.244 		"/>
		<polygon style="fill:#030104;" points="158.654,199.361 130.654,216.223 131.058,218.905 159.942,201.51 192.623,181.824 
			190.496,180.173 		"/>
		<polygon style="fill:#030104;" points="123.022,197.018 94.567,189.953 71.605,184.263 68.519,188.664 93.354,194.835 
			123.831,202.408 126.038,201.078 125.228,195.69 		"/>
		<polygon style="fill:#030104;" points="42.941,104.208 49.99,75.746 53.393,73.701 49.141,70.398 45.605,72.527 38.06,103.004 
			30.924,131.7 36.316,130.889 		"/>
		<polygon style="fill:#030104;" points="172.259,84.75 186.433,108.298 191.816,107.488 176.57,82.165 161.153,56.568 
			157.991,61.078 		"/>
		<polygon style="fill:#030104;" points="66.124,182.904 50.995,157.781 36.22,133.241 30.835,134.052 46.702,160.365 
			62.877,187.262 66.108,188.064 69.194,183.665 		"/>
		<polygon style="fill:#030104;" points="180.317,138.321 173.861,164.331 178.2,167.7 185.199,139.538 192.592,109.717 
			187.219,110.525 		"/>
		<polygon style="fill:#030104;" points="75.114,60.646 100.226,45.511 102.727,46.132 101.918,40.757 99.411,40.135 98.522,40.684 
			72.517,56.325 51.26,69.123 55.514,72.426 		"/>
		<polygon style="fill:#030104;" points="148.133,181.898 127.37,194.399 128.181,199.787 150.717,186.206 177.508,170.086 
			173.247,166.777 		"/>
		<polygon style="fill:#030104;" points="128.687,52.577 156.319,59.439 159.416,55.023 129.898,47.695 104.343,41.358 
			105.152,46.734 		"/>
		<polygon style="fill:#030104;" points="119.874,176.204 99.252,171.082 83.584,167.181 82.034,169.392 98.646,173.511 
			120.291,178.887 122.5,177.558 122.095,174.867 		"/>
		<polygon style="fill:#030104;" points="123.99,71.464 144.344,76.514 145.887,74.314 124.596,69.023 107.881,64.871 
			108.284,67.552 		"/>
		<polygon style="fill:#030104;" points="61.811,108.903 66.931,88.272 69.874,86.5 67.745,84.846 64.752,86.648 59.375,108.285 
			54.452,128.159 57.143,127.754 		"/>
		<polygon style="fill:#030104;" points="78.637,165.948 67.66,147.744 57.053,130.107 54.348,130.515 65.511,149.041 
			77.008,168.146 79.624,168.794 81.176,166.58 		"/>
		<polygon style="fill:#030104;" points="156.311,154.26 138.095,165.231 124.237,173.576 124.643,176.268 139.406,167.383 
			158.497,155.885 158.614,155.413 156.442,153.727 		"/>
		<polygon style="fill:#030104;" points="155.594,94.79 165.604,111.433 168.295,111.027 157.744,93.503 147.35,76.252 
			145.776,78.496 		"/>
		<polygon style="fill:#030104;" points="161.418,133.641 157.05,151.275 159.223,152.963 163.873,134.236 169.074,113.255 
			166.379,113.66 		"/>
		<polygon style="fill:#030104;" points="85.154,77.3 103.368,66.327 105.858,66.947 105.455,64.268 102.946,63.645 102.506,63.912 
			83.854,75.15 69.864,83.571 71.993,85.224 		"/>
		<polygon style="fill:#030104;" points="87.849,153.461 79.946,140.352 72.384,127.801 69.706,128.204 77.796,141.649 
			86.231,155.645 88.457,156.199 90.002,153.996 		"/>
		<polygon style="fill:#030104;" points="75.733,112.351 79.419,97.484 82.01,95.925 79.891,94.279 77.227,95.883 73.295,111.77 
			69.805,125.849 72.474,125.447 		"/>
		<polygon style="fill:#030104;" points="143.834,145.049 130.703,152.949 121.929,158.235 122.334,160.927 132,155.11 
			146.008,146.662 146.225,145.792 144.065,144.115 		"/>
		<polygon style="fill:#030104;" points="92.545,89.583 105.664,81.694 108.17,82.314 107.764,79.612 105.248,78.987 
			104.812,79.253 91.259,87.433 82.01,93.002 84.13,94.649 		"/>
		<polygon style="fill:#030104;" points="117.57,160.861 102.724,157.162 92.41,154.596 90.864,156.8 102.106,159.602 
			117.982,163.545 120.191,162.216 119.787,159.526 		"/>
		<polygon style="fill:#030104;" points="120.528,85.373 135.412,89.06 135.474,89.162 137.04,86.928 137.01,86.877 121.136,82.932 
			110.189,80.214 110.596,82.915 		"/>
		<polygon style="fill:#030104;" points="143.301,102.195 150.265,113.741 152.949,113.337 145.463,100.895 138.346,89.092 
			136.776,91.331 		"/>
		<polygon style="fill:#030104;" points="147.521,130.182 144.673,141.664 146.835,143.344 149.965,130.787 153.735,115.563 
			151.051,115.966 		"/>
		<polygon style="fill:#030104;" points="92.422,116.5 94.389,108.543 96.569,107.231 92.313,103.926 90.015,105.31 87.541,115.275 
			85.498,123.487 90.886,122.677 		"/>
		<polygon style="fill:#030104;" points="128.859,133.994 121.829,138.216 119.159,139.828 119.97,145.214 124.426,142.537 
			133.238,137.232 133.555,135.953 129.211,132.58 		"/>
		<polygon style="fill:#030104;" points="116.396,102.059 124.346,104.025 124.671,104.565 127.829,100.062 127.584,99.655 
			117.607,97.181 112.554,95.927 113.363,101.304 		"/>
		<polygon style="fill:#030104;" points="101.416,104.314 108.444,100.081 110.936,100.701 110.127,95.325 107.619,94.703 
			106.73,95.239 98.818,100.007 94.432,102.649 98.689,105.955 		"/>
		<polygon style="fill:#030104;" points="130.838,126.043 129.82,130.131 134.162,133.502 135.713,127.243 138.028,117.925 
			132.641,118.736 		"/>
		<polygon style="fill:#030104;" points="114.815,142.451 106.852,140.484 102.981,139.522 99.893,143.925 105.652,145.352 
			115.618,147.828 117.827,146.501 117.018,141.121 		"/>
		<polygon style="fill:#030104;" points="128.576,111.053 131.858,116.511 137.248,115.7 132.89,108.468 129.133,102.229 
			125.976,106.732 		"/>
		<polygon style="fill:#030104;" points="98.903,138.508 94.666,131.478 90.793,125.031 85.403,125.842 90.359,134.063 
			95.664,142.877 97.484,143.328 100.573,138.923 		"/>
		<polygon style="fill:#030104;" points="98.121,0.004 95.839,0.353 99.04,21.629 101.465,22.232 		"/>
		<polygon style="fill:#030104;" points="132.796,245.996 135.081,245.647 131.058,218.905 128.914,220.196 		"/>
		<polygon style="fill:#030104;" points="126.038,201.078 128.511,217.514 130.654,216.223 128.181,199.787 		"/>
		<polygon style="fill:#030104;" points="104.343,41.358 101.871,24.925 99.445,24.322 101.918,40.757 		"/>
		<polygon style="fill:#030104;" points="107.881,64.871 105.152,46.734 102.727,46.132 105.455,64.268 		"/>
		<polygon style="fill:#030104;" points="122.5,177.558 125.228,195.69 127.37,194.399 124.643,176.268 		"/>
		<polygon style="fill:#030104;" points="120.191,162.216 122.095,174.867 124.237,173.576 122.334,160.927 		"/>
		<polygon style="fill:#030104;" points="110.189,80.214 108.284,67.552 105.858,66.947 107.764,79.612 		"/>
		<polygon style="fill:#030104;" points="117.827,146.501 119.787,159.526 121.929,158.235 119.97,145.214 		"/>
		<polygon style="fill:#030104;" points="112.554,95.927 110.596,82.915 108.17,82.314 110.127,95.325 		"/>
		<polygon style="fill:#030104;" points="114.878,118.527 115.764,117.264 113.363,101.304 110.936,100.701 113.452,117.419 		"/>
		<polygon style="fill:#030104;" points="115.381,121.839 114.34,123.324 117.018,141.121 119.159,139.828 116.595,122.782 		"/>
		<polygon style="fill:#030104;" points="11.811,134.576 0,136.354 0.344,138.639 11.712,136.929 11.368,136.357 		"/>
		<polygon style="fill:#030104;" points="211.708,106.841 246,101.682 245.65,99.387 210.931,104.611 211.873,106.175 		"/>
		<polygon style="fill:#030104;" points="30.484,133.469 30.924,131.7 14.492,134.173 14.051,135.948 14.398,136.524 
			30.835,134.052 		"/>
		<polygon style="fill:#030104;" points="192.757,109.049 192.592,109.717 209.028,107.244 209.191,106.586 208.245,105.016 
			191.816,107.488 		"/>
		<polygon style="fill:#030104;" points="54.008,129.951 54.452,128.159 36.316,130.889 35.875,132.668 36.22,133.241 
			54.348,130.515 		"/>
		<polygon style="fill:#030104;" points="169.238,112.595 169.074,113.255 187.219,110.525 187.381,109.873 186.433,108.298 
			168.295,111.027 		"/>
		<polygon style="fill:#030104;" points="69.362,127.633 69.805,125.849 57.143,127.754 56.704,129.527 57.053,130.107 
			69.706,128.204 		"/>
		<polygon style="fill:#030104;" points="153.896,114.911 153.735,115.563 166.379,113.66 166.544,112.995 165.604,111.433 
			152.949,113.337 		"/>
		<polygon style="fill:#030104;" points="138.192,117.267 138.028,117.925 151.051,115.966 151.213,115.314 150.265,113.741 
			137.248,115.7 		"/>
		<polygon style="fill:#030104;" points="85.056,125.266 85.498,123.487 72.474,125.447 72.033,127.219 72.384,127.801 
			85.403,125.842 		"/>
		<polygon style="fill:#030104;" points="116.708,119.947 117.986,120.94 132.641,118.736 132.803,118.081 131.858,116.511 
			117.615,118.654 		"/>
		<polygon style="fill:#030104;" points="113.552,120.419 112.308,119.453 90.886,122.677 90.444,124.45 90.793,125.031 
			112.619,121.748 		"/>
		<polygon style="fill:#030104;" points="44.767,218.493 46.664,219.828 57.524,204.342 55.112,203.742 		"/>
		<polygon style="fill:#030104;" points="172.368,40.578 189.292,16.444 187.404,15.118 170.405,39.356 171.848,39.713 		"/>
		<polygon style="fill:#030104;" points="160.365,55.259 161.153,56.568 170.784,42.835 170.219,41.897 168.859,41.56 
			159.416,55.023 		"/>
		<polygon style="fill:#030104;" points="66.108,188.064 56.656,201.541 59.068,202.141 68.519,188.664 		"/>
		<polygon style="fill:#030104;" points="79.624,168.794 69.194,183.665 71.605,184.263 82.034,169.392 		"/>
		<polygon style="fill:#030104;" points="146.234,74.4 147.35,76.252 157.991,61.078 157.124,59.639 156.319,59.439 145.887,74.314 
					"/>
		<polygon style="fill:#030104;" points="88.457,156.199 81.176,166.58 83.584,167.181 90.864,156.8 		"/>
		<polygon style="fill:#030104;" points="138.346,89.092 145.776,78.496 144.625,76.584 144.344,76.514 137.04,86.928 		"/>
		<polygon style="fill:#030104;" points="129.133,102.229 136.776,91.331 135.474,89.162 127.829,100.062 		"/>
		<polygon style="fill:#030104;" points="97.484,143.328 90.002,153.996 92.41,154.596 99.893,143.925 		"/>
		<polygon style="fill:#030104;" points="114.07,121.53 112.619,121.748 100.573,138.923 102.981,139.522 114.34,123.324 		"/>
		<polygon style="fill:#030104;" points="116.01,118.896 117.615,118.654 125.976,106.732 124.671,104.565 115.764,117.264 		"/>
		<polygon style="fill:#030104;" points="116.097,119.473 116.01,118.896 115.46,118.979 		"/>
		<polygon style="fill:#030104;" points="113.949,120.728 114.07,121.53 114.834,121.415 		"/>
		<polygon style="fill:#030104;" points="193.168,181.496 192.623,181.824 211.172,196.229 212.58,194.398 193.62,179.675 		"/>
		<polygon style="fill:#030104;" points="16.379,42.036 14.963,43.857 34.024,58.659 36.143,57.384 		"/>
		<polygon style="fill:#030104;" points="51.26,69.123 38.278,59.042 36.16,60.318 49.141,70.398 		"/>
		<polygon style="fill:#030104;" points="177.625,170.016 177.508,170.086 190.496,180.173 191,179.869 191.464,178 178.2,167.7 		
			"/>
		<polygon style="fill:#030104;" points="69.864,83.571 55.514,72.426 53.393,73.701 67.745,84.846 		"/>
		<polygon style="fill:#030104;" points="158.614,155.413 173.247,166.777 173.256,166.772 173.861,164.331 159.223,152.963 		"/>
		<polygon style="fill:#030104;" points="146.225,145.792 156.442,153.727 157.05,151.275 146.835,143.344 		"/>
		<polygon style="fill:#030104;" points="82.01,93.002 71.993,85.224 69.874,86.5 79.891,94.279 		"/>
		<polygon style="fill:#030104;" points="94.432,102.649 84.13,94.649 82.01,95.925 92.313,103.926 		"/>
		<polygon style="fill:#030104;" points="133.555,135.953 144.065,144.115 144.673,141.664 134.162,133.502 		"/>
		<polygon style="fill:#030104;" points="113.726,119.239 113.452,117.419 98.689,105.955 96.569,107.231 112.308,119.453 		"/>
		<polygon style="fill:#030104;" points="116.354,121.186 116.595,122.782 129.211,132.58 129.82,130.131 117.986,120.94 		"/>
		<polygon style="fill:#030104;" points="114.456,119.13 113.726,119.239 113.841,120.006 		"/>
		<polygon style="fill:#030104;" points="115.778,121.273 116.354,121.186 116.263,120.581 		"/>
		<polygon style="fill:#030104;" points="115.46,118.979 114.878,118.527 114.456,119.13 		"/>
		<polygon style="fill:#030104;" points="114.834,121.415 115.381,121.839 115.778,121.273 		"/>
		<polygon style="fill:#030104;" points="113.841,120.006 113.552,120.419 113.949,120.728 		"/>
		<polygon style="fill:#030104;" points="116.263,120.581 116.708,119.947 116.097,119.473 		"/>
	</g>
</g>
</svg>